<mxfile host="app.diagrams.net" agent="Mozilla/5.0 (Windows NT 10.0; Win64; x64) AppleWebKit/537.36 (KHTML, like Gecko) Chrome/127.0.0.0 Safari/537.36" version="24.7.7">
  <diagram name="Página-1" id="OQ5bW8H61kP_axA_Qgg9">
    <mxGraphModel grid="1" page="1" gridSize="10" guides="1" tooltips="1" connect="1" arrows="1" fold="1" pageScale="1" pageWidth="1169" pageHeight="827" math="0" shadow="0">
      <root>
        <mxCell id="0" />
        <mxCell id="1" parent="0" />
        <mxCell id="zg7_uXEYJ9DAD_peXJil-1" value="" style="whiteSpace=wrap;html=1;aspect=fixed;gradientColor=#EBEBEB;" vertex="1" parent="1">
          <mxGeometry x="160" y="120" width="80" height="80" as="geometry" />
        </mxCell>
        <mxCell id="zg7_uXEYJ9DAD_peXJil-2" value="" style="whiteSpace=wrap;html=1;aspect=fixed;gradientColor=#EBEBEB;" vertex="1" parent="1">
          <mxGeometry x="160" y="240" width="80" height="80" as="geometry" />
        </mxCell>
        <mxCell id="zg7_uXEYJ9DAD_peXJil-3" value="" style="shape=trapezoid;perimeter=trapezoidPerimeter;whiteSpace=wrap;html=1;fixedSize=1;direction=west;flipH=0;flipV=0;gradientColor=#949494;gradientDirection=east;" vertex="1" parent="1">
          <mxGeometry x="160" y="120" width="80" height="30" as="geometry" />
        </mxCell>
        <mxCell id="zg7_uXEYJ9DAD_peXJil-4" value="Arranjo&lt;div&gt;Fotovoltaico&lt;/div&gt;" style="text;html=1;align=center;verticalAlign=middle;whiteSpace=wrap;rounded=0;" vertex="1" parent="1">
          <mxGeometry x="170" y="160" width="60" height="30" as="geometry" />
        </mxCell>
        <mxCell id="zg7_uXEYJ9DAD_peXJil-5" value="REDE" style="text;html=1;align=center;verticalAlign=middle;whiteSpace=wrap;rounded=0;" vertex="1" parent="1">
          <mxGeometry x="170" y="265" width="60" height="30" as="geometry" />
        </mxCell>
        <mxCell id="zg7_uXEYJ9DAD_peXJil-6" value="" style="endArrow=none;html=1;rounded=0;" edge="1" parent="1">
          <mxGeometry width="50" height="50" relative="1" as="geometry">
            <mxPoint x="240" y="160" as="sourcePoint" />
            <mxPoint x="320" y="160" as="targetPoint" />
          </mxGeometry>
        </mxCell>
        <mxCell id="zg7_uXEYJ9DAD_peXJil-7" value="" style="endArrow=none;html=1;rounded=0;" edge="1" parent="1">
          <mxGeometry width="50" height="50" relative="1" as="geometry">
            <mxPoint x="240" y="279.8" as="sourcePoint" />
            <mxPoint x="320" y="279.8" as="targetPoint" />
          </mxGeometry>
        </mxCell>
        <mxCell id="zg7_uXEYJ9DAD_peXJil-8" value="" style="endArrow=none;html=1;rounded=0;" edge="1" parent="1">
          <mxGeometry width="50" height="50" relative="1" as="geometry">
            <mxPoint x="320" y="160" as="sourcePoint" />
            <mxPoint x="320" y="200" as="targetPoint" />
          </mxGeometry>
        </mxCell>
        <mxCell id="zg7_uXEYJ9DAD_peXJil-9" value="" style="endArrow=none;html=1;rounded=0;" edge="1" parent="1">
          <mxGeometry width="50" height="50" relative="1" as="geometry">
            <mxPoint x="320" y="240" as="sourcePoint" />
            <mxPoint x="320" y="280" as="targetPoint" />
          </mxGeometry>
        </mxCell>
        <mxCell id="zg7_uXEYJ9DAD_peXJil-10" value="" style="endArrow=none;html=1;rounded=0;" edge="1" parent="1">
          <mxGeometry width="50" height="50" relative="1" as="geometry">
            <mxPoint x="320" y="200" as="sourcePoint" />
            <mxPoint x="340" y="200" as="targetPoint" />
          </mxGeometry>
        </mxCell>
        <mxCell id="zg7_uXEYJ9DAD_peXJil-11" value="" style="endArrow=none;html=1;rounded=0;" edge="1" parent="1">
          <mxGeometry width="50" height="50" relative="1" as="geometry">
            <mxPoint x="320" y="240" as="sourcePoint" />
            <mxPoint x="340" y="240" as="targetPoint" />
          </mxGeometry>
        </mxCell>
        <mxCell id="zg7_uXEYJ9DAD_peXJil-14" value="V/I" style="rounded=1;whiteSpace=wrap;html=1;" vertex="1" parent="1">
          <mxGeometry x="340" y="230" width="20" height="15" as="geometry" />
        </mxCell>
        <mxCell id="zg7_uXEYJ9DAD_peXJil-15" value="V/I" style="rounded=1;whiteSpace=wrap;html=1;" vertex="1" parent="1">
          <mxGeometry x="340" y="190" width="20" height="15" as="geometry" />
        </mxCell>
        <mxCell id="zg7_uXEYJ9DAD_peXJil-16" value="" style="endArrow=none;html=1;rounded=0;" edge="1" parent="1">
          <mxGeometry width="50" height="50" relative="1" as="geometry">
            <mxPoint x="360" y="200" as="sourcePoint" />
            <mxPoint x="400" y="200" as="targetPoint" />
          </mxGeometry>
        </mxCell>
        <mxCell id="zg7_uXEYJ9DAD_peXJil-18" value="" style="endArrow=none;html=1;rounded=0;" edge="1" parent="1">
          <mxGeometry width="50" height="50" relative="1" as="geometry">
            <mxPoint x="360" y="240" as="sourcePoint" />
            <mxPoint x="400" y="240" as="targetPoint" />
          </mxGeometry>
        </mxCell>
        <mxCell id="zg7_uXEYJ9DAD_peXJil-19" value="" style="endArrow=classic;html=1;rounded=0;exitX=0.5;exitY=0;exitDx=0;exitDy=0;" edge="1" parent="1" source="zg7_uXEYJ9DAD_peXJil-15">
          <mxGeometry width="50" height="50" relative="1" as="geometry">
            <mxPoint x="340" y="190" as="sourcePoint" />
            <mxPoint x="350" y="170" as="targetPoint" />
          </mxGeometry>
        </mxCell>
        <mxCell id="zg7_uXEYJ9DAD_peXJil-20" value="&lt;span style=&quot;font-size: 11px;&quot;&gt;Medição&lt;/span&gt;" style="text;html=1;align=center;verticalAlign=middle;whiteSpace=wrap;rounded=0;" vertex="1" parent="1">
          <mxGeometry x="320" y="150" width="60" height="30" as="geometry" />
        </mxCell>
        <mxCell id="zg7_uXEYJ9DAD_peXJil-21" value="" style="endArrow=classic;html=1;rounded=0;exitX=0.5;exitY=1;exitDx=0;exitDy=0;" edge="1" parent="1" source="zg7_uXEYJ9DAD_peXJil-14">
          <mxGeometry width="50" height="50" relative="1" as="geometry">
            <mxPoint x="349.8" y="280" as="sourcePoint" />
            <mxPoint x="349.8" y="260" as="targetPoint" />
          </mxGeometry>
        </mxCell>
        <mxCell id="zg7_uXEYJ9DAD_peXJil-23" value="&lt;span style=&quot;font-size: 11px;&quot;&gt;Medição&lt;/span&gt;" style="text;html=1;align=center;verticalAlign=middle;whiteSpace=wrap;rounded=0;" vertex="1" parent="1">
          <mxGeometry x="320" y="250" width="60" height="30" as="geometry" />
        </mxCell>
        <mxCell id="zg7_uXEYJ9DAD_peXJil-24" value="CONTROLADOR&lt;div&gt;&lt;br&gt;&lt;/div&gt;" style="whiteSpace=wrap;html=1;aspect=fixed;gradientColor=#EBEBEB;" vertex="1" parent="1">
          <mxGeometry x="400" y="160" width="120" height="120" as="geometry" />
        </mxCell>
        <mxCell id="zg7_uXEYJ9DAD_peXJil-25" value="" style="endArrow=none;html=1;rounded=0;" edge="1" parent="1" source="zg7_uXEYJ9DAD_peXJil-42">
          <mxGeometry width="50" height="50" relative="1" as="geometry">
            <mxPoint x="520" y="222.5" as="sourcePoint" />
            <mxPoint x="640" y="223" as="targetPoint" />
          </mxGeometry>
        </mxCell>
        <mxCell id="zg7_uXEYJ9DAD_peXJil-33" style="edgeStyle=orthogonalEdgeStyle;rounded=0;orthogonalLoop=1;jettySize=auto;html=1;exitX=0;exitY=0.5;exitDx=0;exitDy=0;exitPerimeter=0;endArrow=none;endFill=0;" edge="1" parent="1" source="zg7_uXEYJ9DAD_peXJil-26">
          <mxGeometry relative="1" as="geometry">
            <mxPoint x="590" y="240" as="targetPoint" />
          </mxGeometry>
        </mxCell>
        <mxCell id="zg7_uXEYJ9DAD_peXJil-26" value="" style="pointerEvents=1;verticalLabelPosition=bottom;shadow=0;dashed=0;align=center;html=1;verticalAlign=top;shape=mxgraph.electrical.resistors.resistor_2;rotation=90;" vertex="1" parent="1">
          <mxGeometry x="568" y="281" width="45" height="12.5" as="geometry" />
        </mxCell>
        <mxCell id="zg7_uXEYJ9DAD_peXJil-27" value="" style="pointerEvents=1;verticalLabelPosition=bottom;shadow=0;dashed=0;align=center;html=1;verticalAlign=top;shape=mxgraph.electrical.capacitors.capacitor_1;rotation=90;" vertex="1" parent="1">
          <mxGeometry x="656.78" y="265" width="45.16" height="36.25" as="geometry" />
        </mxCell>
        <mxCell id="zg7_uXEYJ9DAD_peXJil-34" style="edgeStyle=orthogonalEdgeStyle;rounded=0;orthogonalLoop=1;jettySize=auto;html=1;exitX=0;exitY=1;exitDx=0;exitDy=0;exitPerimeter=0;endArrow=none;endFill=0;" edge="1" parent="1" source="zg7_uXEYJ9DAD_peXJil-28">
          <mxGeometry relative="1" as="geometry">
            <mxPoint x="640" y="240" as="targetPoint" />
          </mxGeometry>
        </mxCell>
        <mxCell id="zg7_uXEYJ9DAD_peXJil-28" value="" style="pointerEvents=1;verticalLabelPosition=bottom;shadow=0;dashed=0;align=center;html=1;verticalAlign=top;shape=mxgraph.electrical.inductors.inductor_3;rotation=90;" vertex="1" parent="1">
          <mxGeometry x="622" y="285" width="48.97" height="12.08" as="geometry" />
        </mxCell>
        <mxCell id="zg7_uXEYJ9DAD_peXJil-29" value="" style="endArrow=none;html=1;rounded=0;" edge="1" parent="1">
          <mxGeometry width="50" height="50" relative="1" as="geometry">
            <mxPoint x="640" y="222.5" as="sourcePoint" />
            <mxPoint x="640" y="240" as="targetPoint" />
          </mxGeometry>
        </mxCell>
        <mxCell id="zg7_uXEYJ9DAD_peXJil-31" value="" style="endArrow=none;html=1;rounded=0;" edge="1" parent="1">
          <mxGeometry width="50" height="50" relative="1" as="geometry">
            <mxPoint x="590" y="240" as="sourcePoint" />
            <mxPoint x="660" y="240" as="targetPoint" />
          </mxGeometry>
        </mxCell>
        <mxCell id="zg7_uXEYJ9DAD_peXJil-32" value="" style="endArrow=none;html=1;rounded=0;" edge="1" parent="1">
          <mxGeometry width="50" height="50" relative="1" as="geometry">
            <mxPoint x="640" y="240" as="sourcePoint" />
            <mxPoint x="680" y="240" as="targetPoint" />
          </mxGeometry>
        </mxCell>
        <mxCell id="zg7_uXEYJ9DAD_peXJil-36" value="" style="endArrow=none;html=1;rounded=0;exitX=0;exitY=0.5;exitDx=0;exitDy=0;exitPerimeter=0;" edge="1" parent="1" source="zg7_uXEYJ9DAD_peXJil-27">
          <mxGeometry width="50" height="50" relative="1" as="geometry">
            <mxPoint x="580" y="320" as="sourcePoint" />
            <mxPoint x="680" y="240" as="targetPoint" />
          </mxGeometry>
        </mxCell>
        <mxCell id="zg7_uXEYJ9DAD_peXJil-37" value="" style="endArrow=none;html=1;rounded=0;" edge="1" parent="1">
          <mxGeometry width="50" height="50" relative="1" as="geometry">
            <mxPoint x="590" y="320" as="sourcePoint" />
            <mxPoint x="680" y="320" as="targetPoint" />
          </mxGeometry>
        </mxCell>
        <mxCell id="zg7_uXEYJ9DAD_peXJil-38" value="" style="endArrow=none;html=1;rounded=0;entryX=1;entryY=0.5;entryDx=0;entryDy=0;entryPerimeter=0;" edge="1" parent="1" target="zg7_uXEYJ9DAD_peXJil-26">
          <mxGeometry width="50" height="50" relative="1" as="geometry">
            <mxPoint x="590" y="320" as="sourcePoint" />
            <mxPoint x="620" y="290" as="targetPoint" />
          </mxGeometry>
        </mxCell>
        <mxCell id="zg7_uXEYJ9DAD_peXJil-39" value="" style="endArrow=none;html=1;rounded=0;entryX=1;entryY=1;entryDx=0;entryDy=0;entryPerimeter=0;" edge="1" parent="1" target="zg7_uXEYJ9DAD_peXJil-28">
          <mxGeometry width="50" height="50" relative="1" as="geometry">
            <mxPoint x="640" y="320" as="sourcePoint" />
            <mxPoint x="620" y="290" as="targetPoint" />
          </mxGeometry>
        </mxCell>
        <mxCell id="zg7_uXEYJ9DAD_peXJil-40" value="" style="endArrow=none;html=1;rounded=0;entryX=1;entryY=0.5;entryDx=0;entryDy=0;entryPerimeter=0;" edge="1" parent="1" target="zg7_uXEYJ9DAD_peXJil-27">
          <mxGeometry width="50" height="50" relative="1" as="geometry">
            <mxPoint x="679" y="320" as="sourcePoint" />
            <mxPoint x="620" y="290" as="targetPoint" />
          </mxGeometry>
        </mxCell>
        <mxCell id="zg7_uXEYJ9DAD_peXJil-41" value="" style="pointerEvents=1;verticalLabelPosition=bottom;shadow=0;dashed=0;align=center;html=1;verticalAlign=top;shape=mxgraph.electrical.signal_sources.signal_ground;" vertex="1" parent="1">
          <mxGeometry x="626" y="320" width="28" height="20" as="geometry" />
        </mxCell>
        <mxCell id="zg7_uXEYJ9DAD_peXJil-43" value="" style="endArrow=none;html=1;rounded=0;" edge="1" parent="1" target="zg7_uXEYJ9DAD_peXJil-42">
          <mxGeometry width="50" height="50" relative="1" as="geometry">
            <mxPoint x="520" y="222.5" as="sourcePoint" />
            <mxPoint x="640" y="223" as="targetPoint" />
          </mxGeometry>
        </mxCell>
        <mxCell id="zg7_uXEYJ9DAD_peXJil-42" value="V/I" style="rounded=1;whiteSpace=wrap;html=1;" vertex="1" parent="1">
          <mxGeometry x="613" y="215" width="20" height="15" as="geometry" />
        </mxCell>
        <mxCell id="zg7_uXEYJ9DAD_peXJil-44" value="&lt;span style=&quot;font-size: 11px;&quot;&gt;Medição&lt;/span&gt;" style="text;html=1;align=center;verticalAlign=middle;whiteSpace=wrap;rounded=0;" vertex="1" parent="1">
          <mxGeometry x="593" y="180" width="60" height="30" as="geometry" />
        </mxCell>
        <mxCell id="zg7_uXEYJ9DAD_peXJil-45" value="" style="endArrow=classic;html=1;rounded=0;exitX=0.5;exitY=0;exitDx=0;exitDy=0;" edge="1" parent="1" source="zg7_uXEYJ9DAD_peXJil-42">
          <mxGeometry width="50" height="50" relative="1" as="geometry">
            <mxPoint x="580" y="240" as="sourcePoint" />
            <mxPoint x="623" y="200" as="targetPoint" />
          </mxGeometry>
        </mxCell>
        <mxCell id="zg7_uXEYJ9DAD_peXJil-46" value="" style="endArrow=none;html=1;rounded=0;" edge="1" parent="1">
          <mxGeometry width="50" height="50" relative="1" as="geometry">
            <mxPoint x="380" y="320" as="sourcePoint" />
            <mxPoint x="380" y="200" as="targetPoint" />
          </mxGeometry>
        </mxCell>
        <mxCell id="zg7_uXEYJ9DAD_peXJil-47" value="Banco de baterias" style="whiteSpace=wrap;html=1;aspect=fixed;gradientColor=#EBEBEB;" vertex="1" parent="1">
          <mxGeometry x="360" y="320" width="50" height="50" as="geometry" />
        </mxCell>
        <mxCell id="zg7_uXEYJ9DAD_peXJil-48" value="" style="ellipse;whiteSpace=wrap;html=1;aspect=fixed;fillColor=#000000;" vertex="1" parent="1">
          <mxGeometry x="375" y="196" width="10" height="10" as="geometry" />
        </mxCell>
        <mxCell id="zg7_uXEYJ9DAD_peXJil-52" value="MPPT" style="rounded=1;whiteSpace=wrap;html=1;fillColor=#BABABA;" vertex="1" parent="1">
          <mxGeometry x="404" y="258" width="40" height="14" as="geometry" />
        </mxCell>
        <mxCell id="zg7_uXEYJ9DAD_peXJil-53" value="Psolar+Prede=Pcarga" style="text;html=1;align=center;verticalAlign=middle;whiteSpace=wrap;rounded=0;" vertex="1" parent="1">
          <mxGeometry x="550" y="70" width="60" height="30" as="geometry" />
        </mxCell>
        <mxCell id="zg7_uXEYJ9DAD_peXJil-55" value="Psolar&amp;gt;= Pcarga" style="text;html=1;align=center;verticalAlign=middle;whiteSpace=wrap;rounded=0;" vertex="1" parent="1">
          <mxGeometry x="508" y="90" width="132" height="30" as="geometry" />
        </mxCell>
        <mxCell id="zg7_uXEYJ9DAD_peXJil-56" value="conversor cc/cc" style="rounded=1;whiteSpace=wrap;html=1;fillColor=#BABABA;" vertex="1" parent="1">
          <mxGeometry x="404" y="240" width="90" height="14" as="geometry" />
        </mxCell>
      </root>
    </mxGraphModel>
  </diagram>
</mxfile>
